<svg height="512pt" viewBox="0 0 512 512" width="512pt" xmlns="http://www.w3.org/2000/svg" xmlns:xlink="http://www.w3.org/1999/xlink"><linearGradient id="a" gradientUnits="userSpaceOnUse" x1="256" x2="256" y1="0" y2="512"><stop offset="0" stop-color="#2af598"/><stop offset="1" stop-color="#009efd"/></linearGradient><path d="m472 286v1.15625l-.191406-.164062c-14.503906 16.9375-34.75 35.007812-91.808594 35.007812-25.078125 0-48.386719 7.925781-65.628906 22.316406-18.9375 15.8125-29.371094 38.429688-29.371094 63.683594 0 6.148438.5625 11.621094 1.539062 16.492188-2.328124 1.414062-4.632812 2.882812-6.878906 4.453124-9.4375 6.59375-17.347656 14.113282-23.742187 22.507813-6.378907-8.320313-14.265625-15.78125-23.65625-22.347656-2.230469-1.558594-4.519531-3.019531-6.835938-4.425781 1-4.917969 1.574219-10.453126 1.574219-16.679688 0-25.253906-10.429688-47.871094-29.371094-63.679688-17.242187-14.394531-40.550781-22.320312-65.628906-22.320312-57.058594 0-77.304688-18.070312-91.808594-35.007812l-.191406.164062v-1.15625h-40v20c0 .074219.00390625.152344.00390625.226562.06249995 33.171876 2.07031275 81.214844 17.44140575 122.453126 20.324219 54.507812 59.242188 83.320312 112.554688 83.320312 35.984375 0 65.003906-25.066406 76.351562-52.101562 1.011719.648437 2.015626 1.308593 2.996094 1.992187 17.46875 12.210937 25.964844 28.1875 26.609375 50.109375h40.085938c.636719-22.066406 9.113281-38.09375 26.535156-50.273438.980469-.683593 1.984375-1.34375 3-1.992187 11.300781 27.097656 40.367187 52.265625 76.421875 52.265625 53.3125 0 92.230469-28.8125 112.554688-83.320312 15.371093-41.238282 17.378906-89.28125 17.441406-122.453126 0-.074218.003906-.152343.003906-.226562v-20zm-285.015625 121.480469c-9.199219-3.066407-17.996094-5.488281-25.707031-7.609375-8.164063-2.246094-15.875-4.367188-20.585938-6.332032-35.660156-14.859374-58.855468-28.585937-73.875-40.964843 17.015625 5.8125 38.183594 9.425781 65.183594 9.425781 26.339844 0 54.667969 14.242188 54.984375 45.480469zm-56.984375 64.519531c-36.644531 0-60.5-18.207031-75.070312-57.296875-3.175782-8.515625-5.679688-17.5-7.660157-26.648437 19.328125 14.691406 45.054688 28.664062 78.039063 42.40625 7.046875 2.9375 15.53125 5.273437 25.355468 7.976562 5.988282 1.644531 12.449219 3.429688 19.039063 5.492188-5.191406 13.035156-20.644531 28.070312-39.703125 28.070312zm250-110c27 0 48.167969-3.613281 65.183594-9.425781-15.019532 12.378906-38.214844 26.105469-73.875 40.964843-4.722656 1.964844-12.476563 4.078126-20.6875 6.316407-7.683594 2.089843-16.441406 4.480469-25.605469 7.503906.390625-31.152344 28.675781-45.359375 54.984375-45.359375zm77.070312 52.703125c-14.570312 39.089844-38.425781 57.296875-75.070312 57.296875-19.105469 0-34.582031-15.105469-39.738281-28.164062 6.53125-2.023438 12.9375-3.769532 18.875-5.386719 9.902343-2.699219 18.453125-5.027344 25.554687-7.988281 32.984375-13.742188 58.714844-27.714844 78.039063-42.40625-1.980469 9.148437-4.484375 18.132812-7.660157 26.648437zm-200.070312-90.703125c89.328125 0 162-72.671875 162-162 0-87.949219-70.445312-159.753906-157.875-161.9492188-1.371094-.03125-2.746094-.0507812-4.125-.0507812s-2.753906.0195312-4.125.0507812c-87.429688 2.1953128-157.875 73.9999998-157.875 161.9492188 0 89.328125 72.671875 162 162 162zm0-284c1.035156 0 2.066406.015625 3.09375.039062 64.742188 1.648438 116.90625 54.828126 116.90625 119.960938 0 66.167969-53.832031 120-120 120s-120-53.832031-120-120c0-65.132812 52.164062-118.3125 116.90625-119.960938 1.027344-.023437 2.058594-.039062 3.09375-.039062zm-22.101562 217h40v-16h6.101562c27.019531 0 49-21.980469 49-49 0-14.285156-6.148438-27.160156-15.933594-36.125 3.15625-6.429688 4.933594-13.652344 4.933594-21.285156 0-25.261719-19.414062-46.0625-44.101562-48.292969v-17.296875h-40v17.089844h-38.898438v40h15v74.910156h-15v40h38.898438zm35.601562-130.910156c4.6875 0 8.5 3.8125 8.5 8.5 0 4.292968-3.203125 7.84375-7.34375 8.410156h-20.65625v-16.910156zm-19.5 56.910156h30c4.964844 0 9 4.039062 9 9s-4.035156 9-9 9h-30zm0 0" fill="url(#a)"/></svg>